<svg width="16" height="16" viewBox="0 0 16 16" fill="none" xmlns="http://www.w3.org/2000/svg">
<path d="M16 4.4491C15.9946 4.4279 15.9946 4.40596 16 4.38475C15.9954 4.36619 15.9954 4.34701 16 4.32845V4.25605L15.9432 4.1354C15.9201 4.10248 15.8913 4.07266 15.8579 4.04692L15.7726 3.98257H15.7252L11.9923 1.9797L8.46771 0.129655C8.38616 0.074741 8.29285 0.0337669 8.19294 0.00900017H8.11715C8.03246 -0.00300006 7.94602 -0.00300006 7.86133 0.00900017H7.76659C7.65653 0.0296661 7.55101 0.0649567 7.45393 0.113568L0.376411 3.85387L0.29114 3.91018L0.205868 3.97453L0.111123 4.03083L0.0637498 4.07909L0.00690208 4.19975V4.27214V4.3204C-0.00230069 4.37374 -0.00230069 4.42794 0.00690208 4.48128V11.5034C0.00657987 11.6401 0.047298 11.7746 0.125212 11.8942C0.203127 12.0139 0.315667 12.1147 0.452208 12.1871L7.55815 15.9194L7.70026 15.9676H7.77606C7.93635 16.0108 8.10845 16.0108 8.26874 15.9676H8.34454L8.48665 15.9194L15.5357 12.2434C15.6723 12.171 15.7848 12.0702 15.8627 11.9505C15.9407 11.8309 15.9814 11.6964 15.9811 11.5597V4.53758C15.9811 4.53758 16 4.48128 16 4.4491ZM7.00862 13.82L1.7976 11.1173V5.9774L7.00862 8.71224V13.82ZM14.1146 11.0932L8.90354 13.8441V8.71224L14.1146 5.9774V11.0932Z" fill="black"/>
</svg>
