<svg width="17" height="9" viewBox="0 0 17 9" fill="none" xmlns="http://www.w3.org/2000/svg">
<path d="M16.7576 1.23051C16.6833 1.15561 16.5949 1.09616 16.4975 1.0556C16.4 1.01503 16.2955 0.994141 16.19 0.994141C16.0844 0.994141 15.9799 1.01503 15.8825 1.0556C15.7851 1.09616 15.6966 1.15561 15.6223 1.23051L10.5932 6.26467L7.1632 2.82865C7.08888 2.75376 7.00045 2.69431 6.90301 2.65374C6.80558 2.61317 6.70108 2.59229 6.59553 2.59229C6.48998 2.59229 6.38548 2.61317 6.28805 2.65374C6.19062 2.69431 6.10219 2.75376 6.02786 2.82865L1.23064 7.62309C1.1557 7.69738 1.09622 7.78575 1.05563 7.88313C1.01504 7.9805 0.994141 8.08495 0.994141 8.19043C0.994141 8.29592 1.01504 8.40036 1.05563 8.49774C1.09622 8.59511 1.1557 8.68349 1.23064 8.75778C1.30497 8.83267 1.3934 8.89212 1.49083 8.93269C1.58826 8.97325 1.69276 8.99414 1.79831 8.99414C1.90386 8.99414 2.00837 8.97325 2.1058 8.93269C2.20323 8.89212 2.29166 8.83267 2.36598 8.75778L6.59553 4.52269L10.0255 7.9587C10.0999 8.0336 10.1883 8.09304 10.2857 8.13361C10.3832 8.17418 10.4877 8.19507 10.5932 8.19507C10.6988 8.19507 10.8033 8.17418 10.9007 8.13361C10.9981 8.09304 11.0866 8.0336 11.1609 7.9587L16.7576 2.36519C16.8326 2.29091 16.8921 2.20253 16.9327 2.10515C16.9732 2.00778 16.9941 1.90333 16.9941 1.79785C16.9941 1.69236 16.9732 1.58792 16.9327 1.49054C16.8921 1.39317 16.8326 1.30479 16.7576 1.23051Z" fill="black"/>
</svg>
