<svg width="16" height="16" viewBox="0 0 16 16" fill="none" xmlns="http://www.w3.org/2000/svg">
<path d="M4.33479 7.22793L10.2209 1.30983C10.3175 1.21166 10.4326 1.13373 10.5593 1.08056C10.686 1.02738 10.8219 1 10.9592 1C11.0965 1 11.2324 1.02738 11.3592 1.08056C11.4859 1.13373 11.6009 1.21166 11.6976 1.30983C11.8913 1.50609 12 1.77156 12 2.04829C12 2.32501 11.8913 2.59049 11.6976 2.78674L6.54987 8.02399L11.6976 13.2089C11.8913 13.4051 12 13.6706 12 13.9473C12 14.224 11.8913 14.4895 11.6976 14.6858C11.6013 14.7847 11.4864 14.8635 11.3597 14.9174C11.2329 14.9714 11.0968 14.9994 10.9592 15C10.8216 14.9994 10.6855 14.9714 10.5588 14.9174C10.432 14.8635 10.3172 14.7847 10.2209 14.6858L4.33479 8.76768C4.22923 8.66959 4.14499 8.55055 4.08737 8.41804C4.02975 8.28554 4 8.14245 4 7.9978C4 7.85315 4.02975 7.71006 4.08737 7.57756C4.14499 7.44505 4.22923 7.32601 4.33479 7.22793Z" fill="black"/>
</svg>
