<svg width="16" height="16" viewBox="0 0 16 16" fill="none" xmlns="http://www.w3.org/2000/svg">
<path d="M7.99768 14.3958H2.3993C2.18719 14.3958 1.98377 14.3116 1.83378 14.1616C1.6838 14.0116 1.59954 13.8082 1.59954 13.5961V2.3993C1.59954 2.18719 1.6838 1.98377 1.83378 1.83378C1.98377 1.6838 2.18719 1.59954 2.3993 1.59954H6.39815V3.99884C6.39815 4.63518 6.65093 5.24545 7.10088 5.69541C7.55084 6.14536 8.16111 6.39815 8.79745 6.39815H11.1968V7.19791C11.1968 7.41003 11.281 7.61345 11.431 7.76343C11.581 7.91342 11.7844 7.99768 11.9965 7.99768C12.2086 7.99768 12.4121 7.91342 12.562 7.76343C12.712 7.61345 12.7963 7.41003 12.7963 7.19791V5.59838C12.7963 5.59838 12.7963 5.59838 12.7963 5.55039C12.788 5.47692 12.7719 5.40454 12.7483 5.33445V5.26247C12.7099 5.18024 12.6586 5.10465 12.5963 5.03854V5.03854L7.79774 0.23993C7.73163 0.177721 7.65604 0.126428 7.5738 0.0879744C7.54993 0.0845835 7.5257 0.0845835 7.50183 0.0879744C7.42058 0.041381 7.33085 0.011472 7.2379 0H2.3993C1.76297 0 1.1527 0.252783 0.70274 0.70274C0.252783 1.1527 0 1.76297 0 2.3993V13.5961C0 14.2324 0.252783 14.8427 0.70274 15.2926C1.1527 15.7426 1.76297 15.9954 2.3993 15.9954H7.99768C8.20979 15.9954 8.41322 15.9111 8.5632 15.7611C8.71319 15.6111 8.79745 15.4077 8.79745 15.1956C8.79745 14.9835 8.71319 14.7801 8.5632 14.6301C8.41322 14.4801 8.20979 14.3958 7.99768 14.3958ZM7.99768 2.72721L10.0691 4.79861H8.79745C8.58534 4.79861 8.38191 4.71435 8.23193 4.56436C8.08194 4.41438 7.99768 4.21095 7.99768 3.99884V2.72721ZM3.99884 4.79861C3.78673 4.79861 3.58331 4.88287 3.43332 5.03286C3.28333 5.18284 3.19907 5.38627 3.19907 5.59838C3.19907 5.81049 3.28333 6.01391 3.43332 6.1639C3.58331 6.31388 3.78673 6.39815 3.99884 6.39815H4.79861C5.01072 6.39815 5.21414 6.31388 5.36413 6.1639C5.51412 6.01391 5.59838 5.81049 5.59838 5.59838C5.59838 5.38627 5.51412 5.18284 5.36413 5.03286C5.21414 4.88287 5.01072 4.79861 4.79861 4.79861H3.99884ZM15.7634 14.6278L14.8277 13.7C15.1268 13.178 15.2465 12.5723 15.1685 11.9757C15.0905 11.3791 14.8191 10.8246 14.3958 10.397V10.397C14.0064 9.99364 13.5044 9.71694 12.9555 9.60293C12.4065 9.48892 11.8359 9.54289 11.318 9.7578C10.8002 9.97271 10.359 10.3386 10.0521 10.8078C9.74516 11.277 9.58665 11.8278 9.59722 12.3884C9.59447 12.8708 9.71788 13.3456 9.95521 13.7656C10.1925 14.1856 10.5356 14.5362 10.9502 14.7828C11.3649 15.0293 11.8368 15.1631 12.3191 15.171C12.8015 15.1789 13.2775 15.0606 13.7 14.8277L14.6278 15.7634C14.7021 15.8384 14.7906 15.8979 14.888 15.9385C14.9855 15.9791 15.09 16 15.1956 16C15.3012 16 15.4057 15.9791 15.5032 15.9385C15.6006 15.8979 15.6891 15.8384 15.7634 15.7634C15.8384 15.6891 15.8979 15.6006 15.9385 15.5032C15.9791 15.4057 16 15.3012 16 15.1956C16 15.09 15.9791 14.9855 15.9385 14.888C15.8979 14.7906 15.8384 14.7021 15.7634 14.6278V14.6278ZM13.2282 13.2282C12.9997 13.443 12.698 13.5626 12.3844 13.5626C12.0708 13.5626 11.7691 13.443 11.5407 13.2282C11.3205 13.0041 11.197 12.7026 11.1968 12.3884C11.1951 12.2307 11.2254 12.0742 11.2859 11.9285C11.3464 11.7828 11.4358 11.6509 11.5487 11.5407C11.7619 11.3286 12.0478 11.2056 12.3484 11.1968C12.5101 11.1868 12.6721 11.2104 12.8243 11.266C12.9764 11.3217 13.1154 11.4081 13.2326 11.52C13.3497 11.6319 13.4425 11.7668 13.505 11.9162C13.5676 12.0657 13.5986 12.2264 13.5961 12.3884C13.5894 12.706 13.4571 13.008 13.2282 13.2282V13.2282ZM8.79745 7.99768H3.99884C3.78673 7.99768 3.58331 8.08194 3.43332 8.23193C3.28333 8.38191 3.19907 8.58534 3.19907 8.79745C3.19907 9.00956 3.28333 9.21299 3.43332 9.36297C3.58331 9.51296 3.78673 9.59722 3.99884 9.59722H8.79745C9.00956 9.59722 9.21299 9.51296 9.36297 9.36297C9.51296 9.21299 9.59722 9.00956 9.59722 8.79745C9.59722 8.58534 9.51296 8.38191 9.36297 8.23193C9.21299 8.08194 9.00956 7.99768 8.79745 7.99768ZM7.19791 12.7963C7.41003 12.7963 7.61345 12.712 7.76343 12.562C7.91342 12.4121 7.99768 12.2086 7.99768 11.9965C7.99768 11.7844 7.91342 11.581 7.76343 11.431C7.61345 11.281 7.41003 11.1968 7.19791 11.1968H3.99884C3.78673 11.1968 3.58331 11.281 3.43332 11.431C3.28333 11.581 3.19907 11.7844 3.19907 11.9965C3.19907 12.2086 3.28333 12.4121 3.43332 12.562C3.58331 12.712 3.78673 12.7963 3.99884 12.7963H7.19791Z" fill="black"/>
</svg>
