<svg width="15" height="15" viewBox="0 0 15 15" fill="none" xmlns="http://www.w3.org/2000/svg">
<path fill-rule="evenodd" clip-rule="evenodd" d="M10.9166 9.66667H10.2583L10.025 9.44167C11.025 8.275 11.5416 6.68334 11.2583 4.99167C10.8666 2.675 8.93331 0.825002 6.59997 0.541669C3.07497 0.108336 0.108305 3.075 0.541639 6.6C0.824972 8.93334 2.67497 10.8667 4.99164 11.2583C6.68331 11.5417 8.27497 11.025 9.44164 10.025L9.66664 10.2583V10.9167L13.2083 14.4583C13.55 14.8 14.1083 14.8 14.45 14.4583C14.7916 14.1167 14.7916 13.5583 14.45 13.2167L10.9166 9.66667ZM5.91664 9.66667C3.84164 9.66667 2.16664 7.99167 2.16664 5.91667C2.16664 3.84167 3.84164 2.16667 5.91664 2.16667C7.99164 2.16667 9.66664 3.84167 9.66664 5.91667C9.66664 7.99167 7.99164 9.66667 5.91664 9.66667Z" fill="white" fill-opacity="0.4"/>
</svg>
