<svg width="16" height="16" viewBox="0 0 16 16" fill="none" xmlns="http://www.w3.org/2000/svg">
<g clip-path="url(#clip0_210_1752)">
<path d="M4.00008 8.66699H1.33341C0.933415 8.66699 0.666748 8.93366 0.666748 9.33366V14.667C0.666748 15.067 0.933415 15.3337 1.33341 15.3337H4.00008C4.40008 15.3337 4.66675 15.067 4.66675 14.667V9.33366C4.66675 8.93366 4.40008 8.66699 4.00008 8.66699ZM14.6667 6.00033H12.0001C11.6001 6.00033 11.3334 6.26699 11.3334 6.66699V14.667C11.3334 15.067 11.6001 15.3337 12.0001 15.3337H14.6667C15.0667 15.3337 15.3334 15.067 15.3334 14.667V6.66699C15.3334 6.26699 15.0667 6.00033 14.6667 6.00033ZM9.33341 0.666992H6.66675C6.26675 0.666992 6.00008 0.933659 6.00008 1.33366V14.667C6.00008 15.067 6.26675 15.3337 6.66675 15.3337H9.33341C9.73341 15.3337 10.0001 15.067 10.0001 14.667V1.33366C10.0001 0.933659 9.73341 0.666992 9.33341 0.666992Z" fill="black"/>
</g>
<defs>
<clipPath id="clip0_210_1752">
<rect width="16" height="16" fill="white"/>
</clipPath>
</defs>
</svg>
